PathFileType	4	(X/Y/Z)	..\data\2014015\dynamic\2014015_C4_04.trc
DataRate	CameraRate	NumFrames	NumMarkers	Units	OrigDataRate	OrigDataStartFrame	OrigNumFrames
100.000000	100.000000	4	52	mm	100.000000	118	190
Frame#	Time	L_IAS			L_IPS			R_IPS			R_IAS			L_FTC			L_FLE			L_FME			L_FAX			L_TTC			L_FAL			L_TAM			L_FCC			L_FM1			L_FM2			L_FM5			R_FTC			R_FLE			R_FME			R_FAX			R_TTC			R_FAL			R_TAM			R_FCC			R_FM1			R_FM2			R_FM5			CV7			TV10			SXS			SJN			L_SIA			L_SRS			L_SAA			L_SAE			L_HLE			L_HME			L_UOA			L_RSP			L_UHE			L_HM2			L_HM5			R_SIA			R_SRS			R_SAA			R_SAE			R_HLE			R_HME			R_UOA			R_RSP			R_UHE			R_HM2			R_HM5			
		X1	Y1	Z1	X2	Y2	Z2	X3	Y3	Z3	X4	Y4	Z4	X5	Y5	Z5	X6	Y6	Z6	X7	Y7	Z7	X8	Y8	Z8	X9	Y9	Z9	X10	Y10	Z10	X11	Y11	Z11	X12	Y12	Z12	X13	Y13	Z13	X14	Y14	Z14	X15	Y15	Z15	X16	Y16	Z16	X17	Y17	Z17	X18	Y18	Z18	X19	Y19	Z19	X20	Y20	Z20	X21	Y21	Z21	X22	Y22	Z22	X23	Y23	Z23	X24	Y24	Z24	X25	Y25	Z25	X26	Y26	Z26	X27	Y27	Z27	X28	Y28	Z28	X29	Y29	Z29	X30	Y30	Z30	X31	Y31	Z31	X32	Y32	Z32	X33	Y33	Z33	X34	Y34	Z34	X35	Y35	Z35	X36	Y36	Z36	X37	Y37	Z37	X38	Y38	Z38	X39	Y39	Z39	X40	Y40	Z40	X41	Y41	Z41	X42	Y42	Z42	X43	Y43	Z43	X44	Y44	Z44	X45	Y45	Z45	X46	Y46	Z46	X47	Y47	Z47	X48	Y48	Z48	X49	Y49	Z49	X50	Y50	Z50	X51	Y51	Z51	X52	Y52	Z52	

119	1.18	962.372497558594	826.4375000000002	-357.8761901855469	740.9013671875001	853.4168090820315	-276.5459289550782	735.6261596679689	858.900085449219	-178.5594329833985	957.4246826171877	825.936950683594	-85.95031738281251	889.2869262695315	748.4712524414064	-411.4998168945314	1001.61328125	416.5244445800782	-356.1278076171876	1020.190307617188	411.1828918457032	-211.0847625732422	1009.145874023438	361.4031372070313	-358.3938903808594	1072.639282226563	388.9501342773439	-314.9985961914063	1111.326293945313	75.85385894775392	-332.8733215332032	1141.880004882813	101.2372665405274	-252.855697631836	1100.322387695313	25.69536018371583	-284.0943298339844	1267.615478515625	95.00705718994142	-265.2659912109376	1267.155517578125	106.136459350586	-317.8310852050782	1235.734252929688	71.22061157226564	-364.3901672363282	874.2080688476565	742.2867431640626	-38.94012069702149	805.8784790039065	406.9905700683595	-123.0923843383789	842.8017578125002	392.0433044433595	-255.9057617187501	794.3021240234377	352.9841613769532	-124.8631896972657	849.5468750000002	342.4410095214844	-182.3763275146485	677.7669067382814	67.05040740966798	-185.038314819336	711.8627319335939	91.03565979003908	-271.3329162597657	636.0202636718751	36.8899154663086	-233.4191131591797	812.349304199219	24.13238525390626	-272.1344604492188	830.6114501953127	35.46570587158204	-214.6708679199219	774.1054687500002	26.81557273864747	-163.1741180419922	820.9570312500002	1310.320678710938	-212.9914855957032	733.4119262695314	1118.648193359375	-222.953598022461	972.6216430664065	1010.147094726563	-232.7467651367188	936.0946044921877	1219.06640625	-225.6780700683594	730.4870605468751	1146.710083007813	-295.5515747070313	781.8565063476565	1263.376342773438	-292.2089843750001	815.8621215820315	1264.971923828125	-358.4892272949219	875.387145996094	1246.827026367188	-401.1467895507814	803.520202636719	989.4139404296877	-462.9227294921876	780.0174560546877	971.1475830078127	-378.0469360351563	766.8889160156251	972.949401855469	-425.9282226562501	842.0860595703127	772.2567138671877	-459.5321655273439	776.6962890625002	783.2281494140627	-502.3320312500001	848.226013183594	681.7282714843751	-485.2407531738282	761.6261596679689	706.6062622070314	-514.1350708007814	744.5089721679689	1139.640869140625	-115.4398193359375	793.9821777343752	1257.067749023438	-127.0894775390625	829.9675292968752	1249.76171875	-68.06429290771486	909.8861083984377	1235.162475585938	-47.07352828979493	889.3818969726565	963.8337402343752	22.91972923278809	821.5926513671877	957.228698730469	-54.56542205810548	838.0628662109377	945.4626464843752	0.2340935468673707	972.503112792969	769.9925537109377	-29.1101360321045	926.7740478515627	758.2329101562501	32.34051513671876	996.7304687500002	673.6828613281251	-20.56627082824707	914.1376953125002	693.2036132812501	36.04717254638673	
120	1.19	972.3288574218752	824.4136962890627	-357.8921813964844	750.3335571289064	851.8472290039065	-277.8288269042969	744.7062377929689	857.5063476562502	-180.0779876708985	966.0555419921877	824.291687011719	-86.00478363037111	899.0827636718752	746.1502685546876	-411.9339294433595	1009.615661621094	413.8606567382814	-354.6183166503907	1026.673583984375	408.9432067871095	-209.0951690673829	1018.589538574219	359.1323852539063	-356.8096008300782	1081.383178710938	388.1278076171876	-312.9983215332032	1129.270629882813	76.2346878051758	-330.7497253417969	1159.0986328125	102.8962707519532	-250.8312988281251	1119.779418945313	25.94798278808594	-281.6958923339844	1285.125854492188	99.93000793457034	-263.2095947265626	1284.490234375	110.8238525390625	-315.8265075683594	1253.951416015625	74.82515716552736	-362.2308349609376	882.268737792969	741.2254028320314	-39.42677688598634	812.0314941406252	406.2192993164064	-123.0069808959961	850.0401000976565	390.4721984863282	-255.2428436279297	800.0047607421877	352.3475036621094	-124.5974578857422	855.1246337890627	341.0823974609376	-181.6592864990235	678.5758666992189	68.45571899414064	-184.5401458740235	712.6468505859376	91.9569549560547	-270.9510192871094	636.2823486328126	38.98643112182618	-233.0015106201172	812.2676391601565	24.32313919067384	-272.0494689941407	830.5836181640627	35.41935729980469	-214.6688385009766	774.0916137695315	26.88421821594239	-163.0748901367188	830.4726562500002	1308.508056640625	-213.2118225097657	742.9307861328126	1116.911254882813	-223.6206207275391	982.308532714844	1008.222412109375	-232.7963867187501	945.714782714844	1217.108154296875	-225.7586364746094	740.1215820312501	1144.929443359375	-296.1429138183594	791.5551757812502	1261.591918945313	-292.5091552734376	825.3446044921877	1263.158813476563	-358.6861877441407	885.1929321289065	1244.908325195313	-401.3571166992189	813.0123291015627	987.5433349609377	-462.9964599609376	789.6292114257815	969.2158813476565	-378.0874328613282	776.4295654296877	971.135681152344	-425.9027099609376	851.0322265625002	770.3206176757815	-459.8104553222657	785.566589355469	781.446960449219	-502.4448852539064	856.7844848632815	679.8001098632814	-485.553924560547	770.3096313476565	704.9296875000001	-514.1905517578126	753.9411621093751	1137.770385742188	-116.0330886840821	803.2717285156252	1255.246704101563	-127.4355621337891	839.3134765625002	1247.841064453125	-68.3294143676758	919.1350097656252	1233.411499023438	-47.21781539916993	899.3118896484377	961.8658447265627	22.13556289672852	831.585876464844	955.175231933594	-55.33311843872072	848.0319824218752	943.456237792969	-0.6362580060958863	982.5865478515627	768.2724609375002	-30.36817741394044	936.9324340820315	756.3063354492189	31.10342597961426	1006.953247070313	671.9103393554689	-22.00302696228028	924.4460449218752	691.2889404296876	34.78567504882813	
121	1.2	982.432800292969	822.3511352539065	-357.8566894531251	759.9026489257814	850.3718261718752	-279.2214965820313	753.9031982421876	856.2168579101565	-181.6201171875	974.8657226562502	822.589294433594	-86.10061645507814	909.0857543945315	743.9358520507814	-412.4322204589845	1018.121887207031	411.5012817382814	-353.2289123535157	1033.698486328125	407.0883178710939	-207.3542022705079	1028.2353515625	357.1014709472657	-355.3556518554688	1090.364868164063	387.3496704101564	-311.1026916503907	1145.420776367188	76.44387817382814	-328.5381164550782	1174.5869140625	104.1698455810547	-248.7129058837891	1137.10498046875	26.12474250793458	-279.2319335937501	1300.804931640625	103.8610992431641	-260.9607238769532	1300.065673828125	114.5055313110352	-313.6270446777344	1270.282348632813	77.61244201660158	-359.8723144531251	890.5162353515627	740.2059326171876	-39.92306518554688	818.3809204101565	405.4940490722657	-122.8599319458008	857.4411621093752	388.9161987304689	-254.5207672119141	805.900329589844	351.7768859863282	-124.2522888183594	860.8586425781252	339.7846069335938	-180.8831024169922	679.4720458984376	70.05503082275392	-183.9215698242188	713.4528808593751	93.08621978759767	-270.4357604980469	636.5662841796876	41.36855697631837	-232.4444122314454	812.1770629882815	24.52259826660157	-271.9384155273438	830.580993652344	35.38729858398438	-214.6722106933594	774.1391601562502	26.98579597473145	-162.9460906982422	840.0835571289065	1306.770751953125	-213.4865722656251	752.5529785156251	1115.255981445313	-224.3207092285157	992.062438964844	1006.359436035156	-232.9034576416016	955.428894042969	1215.209716796875	-225.8728179931641	749.8633422851564	1143.25439453125	-296.7698059082032	801.3682861328127	1259.901245117188	-292.8763122558594	835.020202636719	1261.429565429688	-358.9556274414063	895.1436157226565	1243.078002929688	-401.613739013672	822.7100830078127	985.726989746094	-463.075897216797	799.417907714844	967.3638305664065	-378.1381835937501	786.1465454101565	969.3857421875002	-425.8915405273439	860.2122192382815	768.4530029296877	-460.0316162109376	794.6721801757815	779.711608886719	-502.5169982910157	865.6008911132815	677.9418334960939	-485.7972412109376	779.2678222656252	703.3040771484376	-514.2190551757814	763.4532470703126	1135.985595703125	-116.663688659668	812.657653808594	1253.505859375	-127.8306961059571	848.7197265625002	1246.015014648438	-68.64196014404298	928.4566040039065	1231.724609375	-47.39706420898438	909.3008422851565	959.9836425781252	21.30903625488282	841.6436767578127	953.2150878906252	-56.14451217651369	858.052673339844	941.5432739257815	-1.547493696212769	992.7256469726565	766.6507568359376	-31.61979484558106	947.1322021484377	754.4639892578126	29.85665321350098	1017.226684570313	670.2183227539064	-23.44197654724121	934.7957153320315	689.4517822265626	33.50899505615235	
122	1.21	992.696960449219	820.289001464844	-357.7937316894532	769.6416015625002	849.0043945312502	-280.6987915039063	763.2308959960939	855.033630371094	-183.1748657226563	983.862731933594	820.8555908203127	-86.21504211425783	919.316345214844	741.8709106445314	-412.9853820800782	1027.175659179688	409.4750976562501	-351.9567871093751	1041.385009765625	405.6207580566407	-205.8761749267579	1038.098022460938	355.3062133789063	-354.0242614746094	1099.629028320313	386.5954895019532	-309.3297119140626	1159.754272460938	76.36901855468751	-326.2647094726563	1188.35693359375	104.9144821166992	-246.514389038086	1152.249633789063	26.10221862792969	-276.7406005859376	1314.69384765625	106.6024627685547	-258.5176086425782	1313.91357421875	116.9979553222657	-311.2277221679688	1284.741943359375	79.41133880615236	-357.3125305175782	898.9466552734377	739.2339477539064	-40.42108535766602	824.923278808594	404.8369750976564	-122.6639175415039	864.9485473632815	387.4215087890626	-253.7738342285157	811.9724731445315	351.2913818359376	-123.8363800048828	866.738220214844	338.5632324218751	-180.0859527587891	680.4523315429689	71.85369110107423	-183.2039642333985	714.2984008789064	94.44449615478517	-269.8063659667969	636.8723754882814	44.05242156982423	-231.7641754150391	812.0930175781252	24.71606636047364	-271.7976379394532	830.6211547851565	35.36953735351563	-214.6742095947266	774.2617797851565	27.12093162536622	-162.7909240722657	849.7952270507815	1305.132446289063	-213.8179626464844	762.2874755859376	1113.701782226563	-225.0469360351563	1001.8896484375	1004.585021972656	-233.0697326660157	965.2424926757815	1213.399291992188	-226.0267181396485	759.7186279296876	1141.70361328125	-297.4254760742188	811.2962036132815	1258.324951171875	-293.3107604980469	844.898620605469	1259.80859375	-359.3012084960938	905.2358398437502	1241.365478515625	-401.9192199707032	832.6143798828127	983.9891357421877	-463.1646423339845	809.3887329101565	965.6213989257815	-378.2016296386719	796.0442504882815	967.7259521484377	-425.8973693847657	869.6338500976565	766.6816406250001	-460.1985168457032	804.0220947265627	778.049743652344	-502.5525207519532	874.685241699219	676.1766357421876	-485.9639282226564	788.5046997070315	701.7518920898439	-514.2194213867189	773.0534667968752	1134.315551757813	-117.327621459961	822.155944824219	1251.869384765625	-128.2735137939453	858.1985473632815	1244.310180664063	-69.00411224365236	937.8713989257815	1230.12060546875	-47.61800003051759	919.3349609375002	958.211608886719	20.44426918029786	851.7495117187502	951.3790283203127	-57.00100326538087	868.113952636719	939.7486572265627	-2.498828649520874	1002.918029785156	765.1491699218751	-32.85472869873048	957.364440917969	752.7311401367189	28.60847854614259	1027.545532226563	668.6323852539064	-24.86689186096192	945.1765747070315	687.7187500000001	32.22602462768555	
